<?xml version="1.0" encoding="UTF-8" standalone="no"?>
<!DOCTYPE svg PUBLIC "-//W3C//DTD SVG 1.1//EN"
 "http://www.w3.org/Graphics/SVG/1.1/DTD/svg11.dtd">
<!-- Generated by graphviz version 2.40.1 (20161225.0304)
 -->
<!-- Title: Dataflow Pages: 1 -->
<svg width="361pt" height="393pt"
 viewBox="0.00 0.00 360.50 393.00" xmlns="http://www.w3.org/2000/svg" xmlns:xlink="http://www.w3.org/1999/xlink">
<g id="graph0" class="graph" transform="scale(1 1) rotate(0) translate(4 389)">
<title>Dataflow</title>
<polygon fill="#ffffff" stroke="transparent" points="-4,4 -4,-389 356.5,-389 356.5,4 -4,4"/>
<!-- User -->
<g id="node1" class="node">
<title>User</title>
<polygon fill="none" stroke="#000000" points="234,-385 183,-385 183,-334 234,-334 234,-385"/>
<text text-anchor="middle" x="208.5" y="-355.8" font-family="Times,serif" font-size="14.00" fill="#000000">User</text>
</g>
<!-- Browser -->
<g id="node4" class="node">
<title>Browser</title>
<ellipse fill="none" stroke="#000000" cx="165.5" cy="-265" rx="50.0912" ry="18"/>
<text text-anchor="middle" x="165.5" y="-261.3" font-family="Times,serif" font-size="14.00" fill="#000000">Browser</text>
</g>
<!-- User&#45;&gt;Browser -->
<g id="edge1" class="edge">
<title>User&#45;&gt;Browser</title>
<path fill="none" stroke="#000000" d="M196.7501,-333.6775C190.9244,-320.8745 183.887,-305.4086 177.9666,-292.3975"/>
<polygon fill="#000000" stroke="#000000" points="181.0229,-290.6635 173.6955,-283.0111 174.6515,-293.5627 181.0229,-290.6635"/>
<text text-anchor="middle" x="205" y="-304.8" font-family="Times,serif" font-size="14.00" fill="#000000">uses</text>
</g>
<!-- Main DB -->
<g id="node2" class="node">
<title>Main DB</title>
<path fill="none" stroke="#000000" d="M79,-105.7273C79,-107.5331 61.2955,-109 39.5,-109 17.7045,-109 0,-107.5331 0,-105.7273 0,-105.7273 0,-76.2727 0,-76.2727 0,-74.4669 17.7045,-73 39.5,-73 61.2955,-73 79,-74.4669 79,-76.2727 79,-76.2727 79,-105.7273 79,-105.7273"/>
<path fill="none" stroke="#000000" d="M79,-105.7273C79,-103.9214 61.2955,-102.4545 39.5,-102.4545 17.7045,-102.4545 0,-103.9214 0,-105.7273"/>
<text text-anchor="middle" x="39.5" y="-87.3" font-family="Times,serif" font-size="14.00" fill="#000000">Main DB</text>
</g>
<!-- Search -->
<g id="node6" class="node">
<title>Search</title>
<ellipse fill="none" stroke="#000000" cx="163.5" cy="-18" rx="43.5923" ry="18"/>
<text text-anchor="middle" x="163.5" y="-14.3" font-family="Times,serif" font-size="14.00" fill="#000000">Search</text>
</g>
<!-- Main DB&#45;&gt;Search -->
<g id="edge6" class="edge">
<title>Main DB&#45;&gt;Search</title>
<path fill="none" stroke="#000000" d="M69.2011,-73.5147C87.3037,-62.8575 110.503,-49.1998 129.3607,-38.0981"/>
<polygon fill="#000000" stroke="#000000" points="131.3861,-40.9673 138.2281,-32.8778 127.8348,-34.935 131.3861,-40.9673"/>
</g>
<!-- Index DB -->
<g id="node3" class="node">
<title>Index DB</title>
<path fill="none" stroke="#000000" d="M205,-105.7273C205,-107.5331 186.399,-109 163.5,-109 140.601,-109 122,-107.5331 122,-105.7273 122,-105.7273 122,-76.2727 122,-76.2727 122,-74.4669 140.601,-73 163.5,-73 186.399,-73 205,-74.4669 205,-76.2727 205,-76.2727 205,-105.7273 205,-105.7273"/>
<path fill="none" stroke="#000000" d="M205,-105.7273C205,-103.9214 186.399,-102.4545 163.5,-102.4545 140.601,-102.4545 122,-103.9214 122,-105.7273"/>
<text text-anchor="middle" x="163.5" y="-87.3" font-family="Times,serif" font-size="14.00" fill="#000000">Index DB</text>
</g>
<!-- Index DB&#45;&gt;Search -->
<g id="edge5" class="edge">
<title>Index DB&#45;&gt;Search</title>
<path fill="none" stroke="#000000" d="M163.5,-72.9551C163.5,-64.8828 163.5,-55.1764 163.5,-46.1817"/>
<polygon fill="#000000" stroke="#000000" points="167.0001,-46.0903 163.5,-36.0904 160.0001,-46.0904 167.0001,-46.0903"/>
</g>
<!-- Processor -->
<g id="node5" class="node">
<title>Processor</title>
<ellipse fill="none" stroke="#000000" cx="154.5" cy="-178" rx="57.3905" ry="18"/>
<text text-anchor="middle" x="154.5" y="-174.3" font-family="Times,serif" font-size="14.00" fill="#000000">Processor</text>
</g>
<!-- Browser&#45;&gt;Processor -->
<g id="edge2" class="edge">
<title>Browser&#45;&gt;Processor</title>
<path fill="none" stroke="#000000" d="M163.2208,-246.9735C161.7311,-235.1918 159.7548,-219.5607 158.0602,-206.1581"/>
<polygon fill="#000000" stroke="#000000" points="161.5031,-205.4853 156.7763,-196.0034 154.5584,-206.3634 161.5031,-205.4853"/>
<text text-anchor="middle" x="181.5" y="-217.8" font-family="Times,serif" font-size="14.00" fill="#000000">URLs</text>
</g>
<!-- Processor&#45;&gt;Main DB -->
<g id="edge3" class="edge">
<title>Processor&#45;&gt;Main DB</title>
<path fill="none" stroke="#000000" d="M103.5395,-169.8266C72.7944,-163.7389 37.8161,-154.3506 28.5,-142 23.4588,-135.3167 23.4913,-126.8119 25.5911,-118.6718"/>
<polygon fill="#000000" stroke="#000000" points="28.9519,-119.6653 28.9756,-109.0705 22.3501,-117.3381 28.9519,-119.6653"/>
<text text-anchor="middle" x="91.5" y="-130.8" font-family="Times,serif" font-size="14.00" fill="#000000">Compressed data</text>
</g>
<!-- Processor&#45;&gt;Index DB -->
<g id="edge4" class="edge">
<title>Processor&#45;&gt;Index DB</title>
<path fill="none" stroke="#000000" d="M156.3648,-159.9735C157.5836,-148.1918 159.2006,-132.5607 160.5871,-119.1581"/>
<polygon fill="#000000" stroke="#000000" points="164.0899,-119.3105 161.6376,-109.0034 157.1271,-118.5901 164.0899,-119.3105"/>
<text text-anchor="middle" x="195" y="-130.8" font-family="Times,serif" font-size="14.00" fill="#000000">Metadata</text>
</g>
<!-- Search&#45;&gt;User -->
<g id="edge7" class="edge">
<title>Search&#45;&gt;User</title>
<path fill="none" stroke="#000000" d="M195.2568,-30.5106C219.0441,-42.2055 247.5,-62.212 247.5,-91 247.5,-265 247.5,-265 247.5,-265 247.5,-285.8157 239.3146,-307.3927 230.4437,-324.6647"/>
<polygon fill="#000000" stroke="#000000" points="227.1875,-323.3267 225.4925,-333.7851 233.3395,-326.6664 227.1875,-323.3267"/>
<text text-anchor="middle" x="300" y="-174.3" font-family="Times,serif" font-size="14.00" fill="#000000">Search results</text>
</g>
</g>
</svg>
